P3
50 55
255
255
0
255
255
0
255
255
0
255
255
0
255
255
0
255
255
0
255
255
0
255
255
0
255
255
0
255
255
0
255
255
0
255
255
0
255
143
86
59
143
86
59
143
86
59
255
0
255
255
0
255
255
0
255
255
0
255
255
0
255
255
0
255
255
0
255
255
0
255
255
0
255
255
0
255
255
0
255
255
0
255
255
0
255
255
0
255
255
0
255
255
0
255
255
0
255
255
0
255
255
0
255
255
0
255
255
0
255
255
0
255
255
0
255
255
0
255
255
0
255
255
0
255
255
0
255
255
0
255
255
0
255
255
0
255
255
0
255
255
0
255
255
0
255
255
0
255
255
0
255
255
0
255
255
0
255
255
0
255
255
0
255
255
0
255
255
0
255
255
0
255
255
0
255
255
0
255
255
0
255
255
0
255
255
0
255
255
0
255
143
86
59
143
86
59
143
86
59
143
86
59
255
0
255
255
0
255
255
0
255
255
0
255
255
0
255
255
0
255
255
0
255
255
0
255
255
0
255
255
0
255
255
0
255
255
0
255
255
0
255
255
0
255
255
0
255
255
0
255
255
0
255
255
0
255
255
0
255
255
0
255
255
0
255
255
0
255
255
0
255
255
0
255
255
0
255
255
0
255
255
0
255
255
0
255
255
0
255
255
0
255
255
0
255
255
0
255
255
0
255
255
0
255
255
0
255
255
0
255
255
0
255
255
0
255
255
0
255
255
0
255
255
0
255
255
0
255
255
0
255
255
0
255
255
0
255
255
0
255
255
0
255
143
86
59
102
57
49
102
57
49
143
86
59
143
86
59
255
0
255
255
0
255
255
0
255
255
0
255
255
0
255
255
0
255
255
0
255
255
0
255
143
86
59
255
0
255
255
0
255
255
0
255
255
0
255
255
0
255
255
0
255
255
0
255
255
0
255
255
0
255
255
0
255
255
0
255
255
0
255
255
0
255
255
0
255
255
0
255
255
0
255
255
0
255
255
0
255
255
0
255
255
0
255
255
0
255
255
0
255
255
0
255
255
0
255
255
0
255
255
0
255
255
0
255
255
0
255
255
0
255
255
0
255
255
0
255
255
0
255
255
0
255
255
0
255
255
0
255
255
0
255
143
86
59
143
86
59
102
57
49
102
57
49
143
86
59
143
86
59
255
0
255
255
0
255
255
0
255
255
0
255
255
0
255
255
0
255
255
0
255
143
86
59
143
86
59
255
0
255
255
0
255
255
0
255
255
0
255
255
0
255
255
0
255
255
0
255
255
0
255
255
0
255
255
0
255
255
0
255
255
0
255
255
0
255
255
0
255
255
0
255
255
0
255
255
0
255
255
0
255
255
0
255
255
0
255
255
0
255
255
0
255
255
0
255
255
0
255
255
0
255
255
0
255
255
0
255
255
0
255
255
0
255
255
0
255
255
0
255
255
0
255
255
0
255
255
0
255
255
0
255
255
0
255
143
86
59
102
57
49
102
57
49
102
57
49
143
86
59
143
86
59
255
0
255
255
0
255
255
0
255
255
0
255
255
0
255
143
86
59
143
86
59
143
86
59
255
0
255
255
0
255
255
0
255
255
0
255
255
0
255
255
0
255
255
0
255
255
0
255
255
0
255
255
0
255
255
0
255
255
0
255
255
0
255
255
0
255
255
0
255
255
0
255
255
0
255
255
0
255
255
0
255
255
0
255
255
0
255
255
0
255
255
0
255
255
0
255
255
0
255
255
0
255
255
0
255
255
0
255
255
0
255
255
0
255
255
0
255
255
0
255
255
0
255
255
0
255
255
0
255
255
0
255
143
86
59
102
57
49
102
57
49
102
57
49
102
57
49
102
57
49
143
86
59
143
86
59
255
0
255
255
0
255
255
0
255
143
86
59
102
57
49
143
86
59
143
86
59
255
0
255
255
0
255
255
0
255
255
0
255
255
0
255
255
0
255
255
0
255
255
0
255
255
0
255
255
0
255
255
0
255
255
0
255
255
0
255
255
0
255
255
0
255
255
0
255
255
0
255
255
0
255
255
0
255
255
0
255
255
0
255
255
0
255
255
0
255
255
0
255
255
0
255
255
0
255
255
0
255
255
0
255
255
0
255
255
0
255
255
0
255
255
0
255
255
0
255
255
0
255
255
0
255
143
86
59
143
86
59
102
57
49
102
57
49
102
57
49
102
57
49
102
57
49
143
86
59
143
86
59
255
0
255
255
0
255
143
86
59
102
57
49
102
57
49
143
86
59
255
0
255
255
0
255
255
0
255
255
0
255
255
0
255
255
0
255
255
0
255
255
0
255
255
0
255
255
0
255
255
0
255
255
0
255
255
0
255
255
0
255
255
0
255
255
0
255
255
0
255
255
0
255
255
0
255
255
0
255
255
0
255
255
0
255
255
0
255
255
0
255
255
0
255
255
0
255
255
0
255
255
0
255
255
0
255
255
0
255
255
0
255
255
0
255
255
0
255
255
0
255
255
0
255
255
0
255
143
86
59
102
57
49
102
57
49
102
57
49
143
86
59
102
57
49
102
57
49
143
86
59
143
86
59
143
86
59
143
86
59
102
57
49
102
57
49
143
86
59
255
0
255
255
0
255
255
0
255
255
0
255
255
0
255
255
0
255
255
0
255
255
0
255
255
0
255
255
0
255
255
0
255
255
0
255
255
0
255
255
0
255
255
0
255
255
0
255
255
0
255
255
0
255
255
0
255
255
0
255
255
0
255
255
0
255
255
0
255
255
0
255
255
0
255
255
0
255
255
0
255
255
0
255
255
0
255
255
0
255
255
0
255
255
0
255
255
0
255
255
0
255
255
0
255
255
0
255
143
86
59
102
57
49
102
57
49
102
57
49
143
86
59
143
86
59
102
57
49
102
57
49
102
57
49
102
57
49
102
57
49
102
57
49
102
57
49
102
57
49
143
86
59
255
0
255
255
0
255
255
0
255
255
0
255
255
0
255
255
0
255
255
0
255
255
0
255
255
0
255
255
0
255
255
0
255
255
0
255
255
0
255
255
0
255
255
0
255
255
0
255
255
0
255
255
0
255
255
0
255
255
0
255
255
0
255
255
0
255
255
0
255
255
0
255
255
0
255
255
0
255
255
0
255
255
0
255
255
0
255
255
0
255
255
0
255
255
0
255
255
0
255
255
0
255
255
0
255
143
86
59
102
57
49
102
57
49
102
57
49
102
57
49
143
86
59
143
86
59
102
57
49
102
57
49
102
57
49
102
57
49
102
57
49
102
57
49
102
57
49
143
86
59
255
0
255
255
0
255
255
0
255
255
0
255
255
0
255
255
0
255
255
0
255
255
0
255
255
0
255
255
0
255
255
0
255
255
0
255
255
0
255
255
0
255
255
0
255
255
0
255
255
0
255
255
0
255
255
0
255
255
0
255
255
0
255
255
0
255
255
0
255
255
0
255
255
0
255
255
0
255
255
0
255
255
0
255
255
0
255
255
0
255
255
0
255
255
0
255
255
0
255
255
0
255
255
0
255
143
86
59
102
57
49
102
57
49
102
57
49
102
57
49
102
57
49
143
86
59
102
57
49
102
57
49
102
57
49
102
57
49
102
57
49
102
57
49
102
57
49
143
86
59
143
86
59
255
0
255
255
0
255
255
0
255
255
0
255
255
0
255
255
0
255
255
0
255
255
0
255
255
0
255
255
0
255
255
0
255
255
0
255
255
0
255
255
0
255
255
0
255
255
0
255
255
0
255
255
0
255
255
0
255
255
0
255
255
0
255
255
0
255
255
0
255
255
0
255
255
0
255
255
0
255
255
0
255
255
0
255
255
0
255
255
0
255
255
0
255
255
0
255
255
0
255
143
86
59
143
86
59
102
57
49
102
57
49
102
57
49
102
57
49
102
57
49
143
86
59
143
86
59
102
57
49
102
57
49
102
57
49
102
57
49
102
57
49
102
57
49
102
57
49
143
86
59
255
0
255
255
0
255
255
0
255
255
0
255
255
0
255
255
0
255
255
0
255
255
0
255
255
0
255
255
0
255
255
0
255
255
0
255
255
0
255
255
0
255
255
0
255
255
0
255
255
0
255
255
0
255
255
0
255
255
0
255
255
0
255
255
0
255
255
0
255
255
0
255
255
0
255
255
0
255
255
0
255
255
0
255
255
0
255
255
0
255
255
0
255
255
0
255
143
86
59
143
86
59
102
57
49
102
57
49
102
57
49
102
57
49
102
57
49
102
57
49
102
57
49
143
86
59
102
57
49
102
57
49
102
57
49
102
57
49
102
57
49
102
57
49
102
57
49
143
86
59
255
0
255
255
0
255
255
0
255
255
0
255
255
0
255
255
0
255
255
0
255
255
0
255
255
0
255
255
0
255
255
0
255
255
0
255
255
0
255
255
0
255
255
0
255
255
0
255
255
0
255
255
0
255
255
0
255
255
0
255
255
0
255
255
0
255
255
0
255
255
0
255
255
0
255
255
0
255
255
0
255
143
86
59
143
86
59
143
86
59
143
86
59
143
86
59
143
86
59
102
57
49
102
57
49
102
57
49
102
57
49
102
57
49
102
57
49
102
57
49
102
57
49
143
86
59
143
86
59
102
57
49
102
57
49
102
57
49
102
57
49
102
57
49
102
57
49
143
86
59
143
86
59
255
0
255
255
0
255
255
0
255
255
0
255
255
0
255
255
0
255
255
0
255
255
0
255
255
0
255
255
0
255
255
0
255
255
0
255
255
0
255
255
0
255
255
0
255
255
0
255
255
0
255
255
0
255
255
0
255
255
0
255
255
0
255
255
0
255
255
0
255
255
0
255
255
0
255
255
0
255
255
0
255
143
86
59
143
86
59
102
57
49
102
57
49
102
57
49
102
57
49
102
57
49
102
57
49
102
57
49
102
57
49
102
57
49
102
57
49
102
57
49
102
57
49
143
86
59
102
57
49
102
57
49
102
57
49
102
57
49
102
57
49
102
57
49
102
57
49
143
86
59
255
0
255
255
0
255
255
0
255
255
0
255
255
0
255
255
0
255
255
0
255
255
0
255
255
0
255
255
0
255
255
0
255
255
0
255
255
0
255
255
0
255
255
0
255
255
0
255
255
0
255
255
0
255
255
0
255
255
0
255
255
0
255
255
0
255
255
0
255
255
0
255
255
0
255
255
0
255
255
0
255
255
0
255
255
0
255
143
86
59
143
86
59
102
57
49
102
57
49
102
57
49
102
57
49
102
57
49
102
57
49
102
57
49
102
57
49
102
57
49
102
57
49
143
86
59
102
57
49
102
57
49
102
57
49
102
57
49
102
57
49
102
57
49
102
57
49
143
86
59
255
0
255
255
0
255
255
0
255
255
0
255
255
0
255
255
0
255
255
0
255
255
0
255
255
0
255
255
0
255
255
0
255
255
0
255
255
0
255
255
0
255
255
0
255
255
0
255
255
0
255
255
0
255
255
0
255
255
0
255
255
0
255
255
0
255
255
0
255
255
0
255
255
0
255
255
0
255
255
0
255
255
0
255
255
0
255
255
0
255
143
86
59
143
86
59
143
86
59
102
57
49
102
57
49
102
57
49
102
57
49
102
57
49
102
57
49
102
57
49
102
57
49
143
86
59
143
86
59
102
57
49
102
57
49
102
57
49
102
57
49
102
57
49
102
57
49
143
86
59
255
0
255
255
0
255
255
0
255
255
0
255
255
0
255
255
0
255
255
0
255
255
0
255
255
0
255
255
0
255
255
0
255
255
0
255
255
0
255
255
0
255
255
0
255
255
0
255
255
0
255
255
0
255
255
0
255
255
0
255
255
0
255
255
0
255
255
0
255
255
0
255
255
0
255
255
0
255
255
0
255
255
0
255
255
0
255
255
0
255
255
0
255
255
0
255
143
86
59
143
86
59
102
57
49
102
57
49
102
57
49
102
57
49
102
57
49
102
57
49
102
57
49
102
57
49
143
86
59
102
57
49
102
57
49
102
57
49
102
57
49
102
57
49
102
57
49
143
86
59
255
0
255
255
0
255
255
0
255
255
0
255
255
0
255
255
0
255
255
0
255
255
0
255
255
0
255
255
0
255
255
0
255
255
0
255
255
0
255
255
0
255
255
0
255
255
0
255
255
0
255
255
0
255
255
0
255
255
0
255
255
0
255
255
0
255
255
0
255
255
0
255
255
0
255
255
0
255
255
0
255
255
0
255
255
0
255
255
0
255
255
0
255
255
0
255
255
0
255
143
86
59
102
57
49
102
57
49
102
57
49
102
57
49
102
57
49
102
57
49
102
57
49
102
57
49
143
86
59
102
57
49
102
57
49
102
57
49
102
57
49
102
57
49
102
57
49
143
86
59
255
0
255
255
0
255
255
0
255
255
0
255
255
0
255
255
0
255
143
86
59
255
0
255
255
0
255
255
0
255
255
0
255
255
0
255
255
0
255
255
0
255
255
0
255
255
0
255
255
0
255
255
0
255
255
0
255
255
0
255
255
0
255
255
0
255
255
0
255
255
0
255
255
0
255
255
0
255
255
0
255
255
0
255
255
0
255
255
0
255
255
0
255
255
0
255
255
0
255
143
86
59
143
86
59
102
57
49
102
57
49
102
57
49
102
57
49
102
57
49
102
57
49
102
57
49
143
86
59
102
57
49
102
57
49
102
57
49
102
57
49
102
57
49
102
57
49
143
86
59
255
0
255
255
0
255
255
0
255
255
0
255
255
0
255
143
86
59
143
86
59
255
0
255
255
0
255
255
0
255
255
0
255
255
0
255
143
86
59
255
0
255
255
0
255
255
0
255
255
0
255
255
0
255
255
0
255
255
0
255
255
0
255
255
0
255
255
0
255
255
0
255
255
0
255
255
0
255
255
0
255
255
0
255
255
0
255
255
0
255
255
0
255
255
0
255
255
0
255
255
0
255
143
86
59
102
57
49
102
57
49
102
57
49
102
57
49
102
57
49
102
57
49
102
57
49
143
86
59
143
86
59
102
57
49
102
57
49
102
57
49
102
57
49
102
57
49
143
86
59
255
0
255
255
0
255
255
0
255
255
0
255
143
86
59
143
86
59
143
86
59
255
0
255
255
0
255
255
0
255
255
0
255
143
86
59
143
86
59
255
0
255
255
0
255
255
0
255
255
0
255
255
0
255
255
0
255
255
0
255
255
0
255
255
0
255
255
0
255
255
0
255
255
0
255
255
0
255
255
0
255
255
0
255
255
0
255
255
0
255
255
0
255
255
0
255
255
0
255
255
0
255
143
86
59
143
86
59
102
57
49
102
57
49
102
57
49
102
57
49
102
57
49
102
57
49
102
57
49
143
86
59
102
57
49
102
57
49
102
57
49
102
57
49
102
57
49
143
86
59
255
0
255
255
0
255
255
0
255
255
0
255
143
86
59
102
57
49
143
86
59
255
0
255
255
0
255
255
0
255
143
86
59
143
86
59
255
0
255
255
0
255
255
0
255
255
0
255
255
0
255
255
0
255
255
0
255
255
0
255
255
0
255
255
0
255
255
0
255
255
0
255
255
0
255
255
0
255
255
0
255
255
0
255
255
0
255
255
0
255
255
0
255
255
0
255
255
0
255
255
0
255
255
0
255
143
86
59
102
57
49
102
57
49
102
57
49
102
57
49
102
57
49
102
57
49
102
57
49
143
86
59
102
57
49
102
57
49
102
57
49
102
57
49
102
57
49
143
86
59
255
0
255
255
0
255
255
0
255
143
86
59
143
86
59
102
57
49
143
86
59
143
86
59
143
86
59
143
86
59
102
57
49
143
86
59
255
0
255
255
0
255
255
0
255
255
0
255
255
0
255
255
0
255
255
0
255
255
0
255
255
0
255
255
0
255
143
86
59
255
0
255
255
0
255
255
0
255
255
0
255
255
0
255
255
0
255
255
0
255
255
0
255
255
0
255
255
0
255
255
0
255
255
0
255
143
86
59
102
57
49
102
57
49
102
57
49
102
57
49
102
57
49
102
57
49
102
57
49
143
86
59
102
57
49
102
57
49
102
57
49
102
57
49
102
57
49
143
86
59
255
0
255
255
0
255
255
0
255
143
86
59
102
57
49
102
57
49
102
57
49
102
57
49
102
57
49
102
57
49
102
57
49
143
86
59
255
0
255
255
0
255
255
0
255
255
0
255
255
0
255
255
0
255
255
0
255
255
0
255
255
0
255
255
0
255
143
86
59
143
86
59
255
0
255
255
0
255
255
0
255
255
0
255
255
0
255
255
0
255
255
0
255
255
0
255
255
0
255
255
0
255
255
0
255
143
86
59
102
57
49
102
57
49
102
57
49
102
57
49
102
57
49
102
57
49
102
57
49
143
86
59
102
57
49
102
57
49
102
57
49
102
57
49
102
57
49
143
86
59
255
0
255
143
86
59
143
86
59
102
57
49
102
57
49
102
57
49
102
57
49
102
57
49
102
57
49
102
57
49
102
57
49
143
86
59
255
0
255
255
0
255
255
0
255
255
0
255
255
0
255
255
0
255
255
0
255
255
0
255
255
0
255
255
0
255
143
86
59
143
86
59
143
86
59
255
0
255
255
0
255
255
0
255
255
0
255
255
0
255
255
0
255
255
0
255
255
0
255
255
0
255
255
0
255
143
86
59
143
86
59
102
57
49
102
57
49
102
57
49
102
57
49
102
57
49
102
57
49
143
86
59
102
57
49
102
57
49
102
57
49
102
57
49
143
86
59
143
86
59
143
86
59
143
86
59
102
57
49
102
57
49
102
57
49
102
57
49
102
57
49
102
57
49
102
57
49
102
57
49
102
57
49
143
86
59
143
86
59
255
0
255
255
0
255
255
0
255
255
0
255
255
0
255
255
0
255
255
0
255
255
0
255
255
0
255
143
86
59
102
57
49
143
86
59
143
86
59
255
0
255
255
0
255
255
0
255
255
0
255
255
0
255
255
0
255
255
0
255
255
0
255
255
0
255
255
0
255
143
86
59
102
57
49
102
57
49
102
57
49
102
57
49
102
57
49
102
57
49
143
86
59
143
86
59
102
57
49
102
57
49
102
57
49
143
86
59
143
86
59
143
86
59
102
57
49
102
57
49
102
57
49
102
57
49
102
57
49
143
86
59
143
86
59
102
57
49
102
57
49
102
57
49
102
57
49
143
86
59
143
86
59
143
86
59
143
86
59
143
86
59
255
0
255
255
0
255
255
0
255
255
0
255
143
86
59
143
86
59
102
57
49
102
57
49
143
86
59
143
86
59
143
86
59
255
0
255
255
0
255
255
0
255
255
0
255
255
0
255
255
0
255
255
0
255
255
0
255
143
86
59
102
57
49
102
57
49
102
57
49
102
57
49
102
57
49
102
57
49
102
57
49
143
86
59
102
57
49
102
57
49
102
57
49
143
86
59
143
86
59
102
57
49
102
57
49
102
57
49
102
57
49
102
57
49
143
86
59
143
86
59
102
57
49
102
57
49
102
57
49
102
57
49
102
57
49
102
57
49
102
57
49
102
57
49
102
57
49
143
86
59
143
86
59
143
86
59
143
86
59
143
86
59
143
86
59
102
57
49
102
57
49
102
57
49
102
57
49
102
57
49
143
86
59
143
86
59
143
86
59
255
0
255
255
0
255
255
0
255
255
0
255
255
0
255
255
0
255
143
86
59
102
57
49
102
57
49
102
57
49
102
57
49
102
57
49
102
57
49
102
57
49
143
86
59
102
57
49
102
57
49
102
57
49
102
57
49
102
57
49
102
57
49
102
57
49
102
57
49
102
57
49
143
86
59
143
86
59
102
57
49
102
57
49
102
57
49
102
57
49
102
57
49
102
57
49
102
57
49
143
86
59
143
86
59
143
86
59
255
0
255
255
0
255
143
86
59
102
57
49
102
57
49
102
57
49
102
57
49
102
57
49
102
57
49
102
57
49
102
57
49
102
57
49
102
57
49
143
86
59
143
86
59
143
86
59
143
86
59
255
0
255
255
0
255
255
0
255
143
86
59
102
57
49
102
57
49
102
57
49
102
57
49
102
57
49
102
57
49
102
57
49
143
86
59
102
57
49
102
57
49
102
57
49
102
57
49
102
57
49
102
57
49
102
57
49
102
57
49
143
86
59
143
86
59
102
57
49
102
57
49
102
57
49
102
57
49
102
57
49
102
57
49
143
86
59
143
86
59
143
86
59
255
0
255
255
0
255
255
0
255
255
0
255
143
86
59
102
57
49
102
57
49
102
57
49
102
57
49
102
57
49
102
57
49
102
57
49
102
57
49
102
57
49
102
57
49
102
57
49
102
57
49
102
57
49
143
86
59
143
86
59
143
86
59
143
86
59
143
86
59
102
57
49
102
57
49
102
57
49
102
57
49
102
57
49
102
57
49
102
57
49
143
86
59
102
57
49
102
57
49
102
57
49
102
57
49
102
57
49
102
57
49
102
57
49
143
86
59
143
86
59
102
57
49
102
57
49
102
57
49
102
57
49
102
57
49
143
86
59
143
86
59
143
86
59
255
0
255
255
0
255
255
0
255
255
0
255
255
0
255
255
0
255
255
0
255
143
86
59
102
57
49
102
57
49
102
57
49
102
57
49
102
57
49
143
86
59
143
86
59
102
57
49
102
57
49
102
57
49
102
57
49
102
57
49
102
57
49
102
57
49
102
57
49
102
57
49
102
57
49
102
57
49
102
57
49
102
57
49
102
57
49
102
57
49
102
57
49
102
57
49
143
86
59
102
57
49
102
57
49
102
57
49
102
57
49
102
57
49
143
86
59
143
86
59
102
57
49
102
57
49
102
57
49
102
57
49
102
57
49
143
86
59
143
86
59
143
86
59
255
0
255
255
0
255
255
0
255
255
0
255
255
0
255
255
0
255
255
0
255
255
0
255
255
0
255
143
86
59
102
57
49
102
57
49
102
57
49
102
57
49
102
57
49
102
57
49
143
86
59
143
86
59
143
86
59
143
86
59
143
86
59
143
86
59
102
57
49
102
57
49
102
57
49
102
57
49
102
57
49
102
57
49
102
57
49
102
57
49
102
57
49
102
57
49
102
57
49
102
57
49
143
86
59
102
57
49
102
57
49
102
57
49
102
57
49
102
57
49
143
86
59
102
57
49
102
57
49
102
57
49
102
57
49
102
57
49
143
86
59
143
86
59
255
0
255
255
0
255
255
0
255
255
0
255
255
0
255
255
0
255
255
0
255
255
0
255
255
0
255
255
0
255
143
86
59
143
86
59
102
57
49
102
57
49
102
57
49
102
57
49
102
57
49
102
57
49
102
57
49
102
57
49
102
57
49
102
57
49
102
57
49
143
86
59
143
86
59
143
86
59
102
57
49
102
57
49
102
57
49
102
57
49
102
57
49
102
57
49
102
57
49
102
57
49
102
57
49
102
57
49
143
86
59
102
57
49
102
57
49
102
57
49
102
57
49
143
86
59
143
86
59
102
57
49
102
57
49
102
57
49
102
57
49
102
57
49
143
86
59
143
86
59
255
0
255
255
0
255
255
0
255
255
0
255
255
0
255
255
0
255
255
0
255
255
0
255
255
0
255
255
0
255
143
86
59
143
86
59
143
86
59
143
86
59
143
86
59
102
57
49
102
57
49
102
57
49
102
57
49
102
57
49
102
57
49
102
57
49
102
57
49
102
57
49
102
57
49
143
86
59
143
86
59
143
86
59
102
57
49
102
57
49
102
57
49
102
57
49
102
57
49
102
57
49
102
57
49
102
57
49
143
86
59
102
57
49
102
57
49
102
57
49
143
86
59
143
86
59
102
57
49
102
57
49
102
57
49
102
57
49
102
57
49
102
57
49
102
57
49
143
86
59
143
86
59
255
0
255
255
0
255
255
0
255
255
0
255
255
0
255
255
0
255
255
0
255
255
0
255
255
0
255
255
0
255
255
0
255
255
0
255
255
0
255
143
86
59
143
86
59
143
86
59
102
57
49
102
57
49
102
57
49
102
57
49
102
57
49
102
57
49
102
57
49
102
57
49
102
57
49
102
57
49
143
86
59
143
86
59
102
57
49
102
57
49
102
57
49
102
57
49
102
57
49
102
57
49
102
57
49
143
86
59
102
57
49
102
57
49
143
86
59
143
86
59
102
57
49
102
57
49
102
57
49
102
57
49
102
57
49
102
57
49
102
57
49
102
57
49
102
57
49
143
86
59
143
86
59
143
86
59
143
86
59
255
0
255
255
0
255
255
0
255
255
0
255
255
0
255
255
0
255
255
0
255
255
0
255
255
0
255
255
0
255
255
0
255
255
0
255
143
86
59
143
86
59
143
86
59
143
86
59
102
57
49
102
57
49
102
57
49
102
57
49
102
57
49
102
57
49
102
57
49
102
57
49
102
57
49
143
86
59
143
86
59
102
57
49
102
57
49
102
57
49
102
57
49
102
57
49
143
86
59
102
57
49
102
57
49
143
86
59
102
57
49
102
57
49
102
57
49
102
57
49
102
57
49
102
57
49
102
57
49
102
57
49
102
57
49
102
57
49
102
57
49
102
57
49
102
57
49
143
86
59
143
86
59
143
86
59
143
86
59
255
0
255
255
0
255
255
0
255
255
0
255
255
0
255
255
0
255
255
0
255
255
0
255
255
0
255
255
0
255
255
0
255
255
0
255
143
86
59
143
86
59
143
86
59
102
57
49
102
57
49
102
57
49
102
57
49
102
57
49
102
57
49
102
57
49
102
57
49
143
86
59
143
86
59
143
86
59
102
57
49
102
57
49
102
57
49
143
86
59
102
57
49
143
86
59
143
86
59
102
57
49
102
57
49
102
57
49
102
57
49
102
57
49
102
57
49
102
57
49
102
57
49
102
57
49
102
57
49
102
57
49
102
57
49
102
57
49
102
57
49
102
57
49
102
57
49
143
86
59
143
86
59
255
0
255
255
0
255
255
0
255
255
0
255
255
0
255
255
0
255
255
0
255
255
0
255
255
0
255
255
0
255
255
0
255
255
0
255
255
0
255
143
86
59
102
57
49
102
57
49
102
57
49
102
57
49
102
57
49
102
57
49
102
57
49
102
57
49
102
57
49
102
57
49
143
86
59
143
86
59
143
86
59
102
57
49
143
86
59
143
86
59
143
86
59
102
57
49
102
57
49
143
86
59
143
86
59
143
86
59
143
86
59
143
86
59
143
86
59
102
57
49
102
57
49
102
57
49
102
57
49
102
57
49
102
57
49
102
57
49
102
57
49
143
86
59
143
86
59
255
0
255
255
0
255
255
0
255
255
0
255
255
0
255
255
0
255
255
0
255
255
0
255
255
0
255
255
0
255
255
0
255
255
0
255
255
0
255
143
86
59
143
86
59
102
57
49
102
57
49
102
57
49
102
57
49
102
57
49
102
57
49
143
86
59
143
86
59
143
86
59
143
86
59
143
86
59
143
86
59
143
86
59
143
86
59
143
86
59
143
86
59
143
86
59
143
86
59
143
86
59
143
86
59
102
57
49
102
57
49
102
57
49
102
57
49
143
86
59
143
86
59
143
86
59
102
57
49
102
57
49
102
57
49
102
57
49
102
57
49
143
86
59
143
86
59
255
0
255
255
0
255
255
0
255
255
0
255
255
0
255
255
0
255
255
0
255
255
0
255
255
0
255
255
0
255
255
0
255
255
0
255
255
0
255
143
86
59
143
86
59
102
57
49
102
57
49
102
57
49
102
57
49
102
57
49
143
86
59
143
86
59
143
86
59
102
57
49
102
57
49
102
57
49
102
57
49
102
57
49
143
86
59
143
86
59
143
86
59
143
86
59
102
57
49
102
57
49
102
57
49
102
57
49
102
57
49
102
57
49
102
57
49
102
57
49
102
57
49
102
57
49
143
86
59
102
57
49
102
57
49
102
57
49
102
57
49
143
86
59
143
86
59
255
0
255
255
0
255
255
0
255
255
0
255
255
0
255
255
0
255
255
0
255
255
0
255
255
0
255
255
0
255
255
0
255
255
0
255
255
0
255
143
86
59
143
86
59
102
57
49
102
57
49
102
57
49
102
57
49
143
86
59
143
86
59
143
86
59
102
57
49
102
57
49
102
57
49
102
57
49
102
57
49
102
57
49
102
57
49
102
57
49
102
57
49
143
86
59
143
86
59
102
57
49
102
57
49
102
57
49
102
57
49
102
57
49
102
57
49
102
57
49
102
57
49
102
57
49
102
57
49
102
57
49
102
57
49
102
57
49
102
57
49
102
57
49
143
86
59
255
0
255
255
0
255
255
0
255
255
0
255
255
0
255
255
0
255
255
0
255
255
0
255
255
0
255
255
0
255
255
0
255
255
0
255
143
86
59
143
86
59
143
86
59
102
57
49
102
57
49
102
57
49
102
57
49
143
86
59
102
57
49
102
57
49
102
57
49
102
57
49
102
57
49
102
57
49
102
57
49
102
57
49
102
57
49
143
86
59
143
86
59
143
86
59
143
86
59
143
86
59
143
86
59
143
86
59
143
86
59
102
57
49
102
57
49
102
57
49
102
57
49
102
57
49
102
57
49
102
57
49
102
57
49
102
57
49
102
57
49
102
57
49
143
86
59
255
0
255
255
0
255
255
0
255
255
0
255
255
0
255
255
0
255
255
0
255
255
0
255
255
0
255
255
0
255
255
0
255
143
86
59
143
86
59
143
86
59
102
57
49
102
57
49
102
57
49
102
57
49
102
57
49
102
57
49
102
57
49
102
57
49
102
57
49
102
57
49
102
57
49
102
57
49
102
57
49
143
86
59
143
86
59
143
86
59
143
86
59
255
0
255
255
0
255
143
86
59
255
0
255
255
0
255
255
0
255
143
86
59
143
86
59
143
86
59
143
86
59
102
57
49
102
57
49
102
57
49
102
57
49
102
57
49
102
57
49
143
86
59
143
86
59
143
86
59
255
0
255
255
0
255
255
0
255
255
0
255
255
0
255
255
0
255
255
0
255
255
0
255
255
0
255
255
0
255
255
0
255
255
0
255
143
86
59
143
86
59
143
86
59
143
86
59
143
86
59
143
86
59
102
57
49
102
57
49
102
57
49
102
57
49
102
57
49
102
57
49
143
86
59
143
86
59
143
86
59
143
86
59
255
0
255
255
0
255
255
0
255
255
0
255
255
0
255
143
86
59
255
0
255
255
0
255
255
0
255
255
0
255
255
0
255
255
0
255
143
86
59
143
86
59
143
86
59
102
57
49
102
57
49
102
57
49
102
57
49
143
86
59
255
0
255
255
0
255
255
0
255
255
0
255
255
0
255
255
0
255
255
0
255
255
0
255
255
0
255
255
0
255
255
0
255
255
0
255
255
0
255
255
0
255
255
0
255
255
0
255
255
0
255
255
0
255
255
0
255
143
86
59
102
57
49
102
57
49
102
57
49
102
57
49
143
86
59
143
86
59
143
86
59
255
0
255
255
0
255
255
0
255
255
0
255
255
0
255
255
0
255
255
0
255
255
0
255
143
86
59
255
0
255
255
0
255
255
0
255
255
0
255
255
0
255
255
0
255
255
0
255
255
0
255
143
86
59
143
86
59
143
86
59
102
57
49
102
57
49
143
86
59
255
0
255
255
0
255
255
0
255
255
0
255
255
0
255
255
0
255
255
0
255
255
0
255
255
0
255
255
0
255
255
0
255
255
0
255
255
0
255
255
0
255
255
0
255
255
0
255
255
0
255
255
0
255
255
0
255
143
86
59
102
57
49
102
57
49
143
86
59
143
86
59
143
86
59
255
0
255
255
0
255
255
0
255
255
0
255
255
0
255
255
0
255
255
0
255
255
0
255
255
0
255
143
86
59
255
0
255
255
0
255
255
0
255
255
0
255
255
0
255
255
0
255
255
0
255
255
0
255
255
0
255
255
0
255
255
0
255
143
86
59
143
86
59
143
86
59
143
86
59
255
0
255
255
0
255
255
0
255
255
0
255
255
0
255
255
0
255
255
0
255
255
0
255
255
0
255
255
0
255
255
0
255
255
0
255
255
0
255
255
0
255
255
0
255
255
0
255
255
0
255
255
0
255
255
0
255
143
86
59
102
57
49
143
86
59
143
86
59
255
0
255
255
0
255
255
0
255
255
0
255
255
0
255
255
0
255
255
0
255
255
0
255
255
0
255
255
0
255
255
0
255
143
86
59
255
0
255
255
0
255
255
0
255
255
0
255
255
0
255
255
0
255
255
0
255
255
0
255
255
0
255
255
0
255
255
0
255
255
0
255
255
0
255
143
86
59
255
0
255
255
0
255
255
0
255
255
0
255
255
0
255
255
0
255
255
0
255
255
0
255
255
0
255
255
0
255
255
0
255
255
0
255
255
0
255
255
0
255
255
0
255
255
0
255
255
0
255
255
0
255
255
0
255
255
0
255
143
86
59
143
86
59
143
86
59
255
0
255
255
0
255
255
0
255
255
0
255
255
0
255
255
0
255
255
0
255
255
0
255
255
0
255
255
0
255
255
0
255
255
0
255
143
86
59
255
0
255
255
0
255
255
0
255
255
0
255
255
0
255
255
0
255
255
0
255
255
0
255
255
0
255
255
0
255
255
0
255
255
0
255
255
0
255
255
0
255
255
0
255
255
0
255
255
0
255
255
0
255
255
0
255
255
0
255
255
0
255
255
0
255
255
0
255
255
0
255
255
0
255
255
0
255
255
0
255
255
0
255
255
0
255
255
0
255
255
0
255
255
0
255
255
0
255
255
0
255
255
0
255
255
0
255
255
0
255
255
0
255
255
0
255
255
0
255
255
0
255
255
0
255
255
0
255
255
0
255
255
0
255
255
0
255
255
0
255
255
0
255
143
86
59
143
86
59
255
0
255
255
0
255
255
0
255
255
0
255
255
0
255
255
0
255
255
0
255
255
0
255
255
0
255
255
0
255
255
0
255
255
0
255
255
0
255
255
0
255
255
0
255
255
0
255
255
0
255
255
0
255
255
0
255
255
0
255
255
0
255
255
0
255
255
0
255
255
0
255
255
0
255
255
0
255
255
0
255
255
0
255
255
0
255
255
0
255
255
0
255
255
0
255
255
0
255
255
0
255
255
0
255
255
0
255
255
0
255
255
0
255
255
0
255
255
0
255
255
0
255
255
0
255
255
0
255
255
0
255
255
0
255
255
0
255
255
0
255
255
0
255
143
86
59
255
0
255
255
0
255
255
0
255
255
0
255
255
0
255
255
0
255
255
0
255
255
0
255
255
0
255
255
0
255
255
0
255
255
0
255
255
0
255
255
0
255
255
0
255
255
0
255
255
0
255
255
0
255
255
0
255
255
0
255
255
0
255
255
0
255
255
0
255
255
0
255
255
0
255
255
0
255
255
0
255
255
0
255
255
0
255
255
0
255
255
0
255
255
0
255
255
0
255
255
0
255
255
0
255
255
0
255
255
0
255
255
0
255
255
0
255
255
0
255
255
0
255
255
0
255
255
0
255
255
0
255
255
0
255
255
0
255
255
0
255
255
0
255
255
0
255
143
86
59
255
0
255
255
0
255
255
0
255
255
0
255
255
0
255
255
0
255
255
0
255
255
0
255
255
0
255
255
0
255
255
0
255
255
0
255
255
0
255
255
0
255
255
0
255
255
0
255
255
0
255
255
0
255
255
0
255
255
0
255
255
0
255
255
0
255
255
0
255
255
0
255
255
0
255
255
0
255
255
0
255
255
0
255
255
0
255
255
0
255
255
0
255
255
0
255
255
0
255
255
0
255
255
0
255
255
0
255
255
0
255
255
0
255
255
0
255
255
0
255
255
0
255
255
0
255
255
0
255
255
0
255
255
0
255
255
0
255
255
0
255
255
0
255
255
0
255
143
86
59
255
0
255
255
0
255
255
0
255
255
0
255
255
0
255
255
0
255
255
0
255
255
0
255
255
0
255
255
0
255
255
0
255
255
0
255
255
0
255
255
0
255
255
0
255
255
0
255
255
0
255
255
0
255
255
0
255
255
0
255
255
0
255
255
0
255
255
0
255
255
0
255
255
0
255
255
0
255
255
0
255
255
0
255
255
0
255
255
0
255
255
0
255
255
0
255
255
0
255
255
0
255
255
0
255
255
0
255
255
0
255
255
0
255
255
0
255
255
0
255
255
0
255
255
0
255
255
0
255
255
0
255
255
0
255
255
0
255
255
0
255
255
0
255
143
86
59
255
0
255
255
0
255
255
0
255
255
0
255
255
0
255
255
0
255
255
0
255
255
0
255
255
0
255
255
0
255
255
0
255
255
0
255
255
0
255
255
0
255
255
0
255
255
0
255
255
0
255
255
0
255
255
0
255
255
0
255
255
0
255
255
0
255
255
0
255
255
0
255
255
0
255
255
0
255
255
0
255
255
0
255
255
0
255
255
0
255
255
0
255
255
0
255
255
0
255
255
0
255
255
0
255
255
0
255
255
0
255
255
0
255
255
0
255
255
0
255
255
0
255
255
0
255
255
0
255
255
0
255
255
0
255
255
0
255
255
0
255
255
0
255
255
0
255
143
86
59
255
0
255
255
0
255
255
0
255
255
0
255
255
0
255
255
0
255
255
0
255
255
0
255
255
0
255
255
0
255
255
0
255
255
0
255
255
0
255
255
0
255
255
0
255
255
0
255
255
0
255
255
0
255
255
0
255
255
0
255
255
0
255
255
0
255
255
0
255
255
0
255
255
0
255
