P3
64 64
255
255
0
255
255
0
255
255
0
255
255
0
255
255
0
255
255
0
255
255
0
255
255
0
255
255
0
255
255
0
255
255
0
255
255
0
255
255
0
255
255
0
255
255
0
255
255
0
255
255
0
255
255
0
255
255
0
255
255
0
255
255
0
255
255
0
255
255
0
255
255
0
255
255
0
255
255
0
255
255
0
255
255
0
255
255
0
255
255
0
255
255
0
255
252
242
252
252
250
252
255
0
255
255
0
255
255
0
255
255
0
255
255
0
255
255
0
255
255
0
255
255
0
255
255
0
255
255
0
255
255
0
255
255
0
255
255
0
255
255
0
255
255
0
255
255
0
255
255
0
255
255
0
255
255
0
255
255
0
255
255
0
255
255
0
255
255
0
255
255
0
255
255
0
255
255
0
255
255
0
255
255
0
255
255
0
255
255
0
255
255
0
255
255
0
255
255
0
255
255
0
255
255
0
255
255
0
255
255
0
255
255
0
255
255
0
255
255
0
255
255
0
255
255
0
255
255
0
255
255
0
255
255
0
255
255
0
255
255
0
255
255
0
255
255
0
255
255
0
255
255
0
255
255
0
255
255
0
255
255
0
255
255
0
255
255
0
255
255
0
255
255
0
255
255
0
255
255
0
255
255
0
255
252
242
252
252
254
252
252
254
252
252
242
252
255
0
255
255
0
255
255
0
255
255
0
255
255
0
255
255
0
255
255
0
255
255
0
255
255
0
255
255
0
255
255
0
255
255
0
255
255
0
255
255
0
255
255
0
255
255
0
255
255
0
255
255
0
255
255
0
255
255
0
255
255
0
255
255
0
255
255
0
255
255
0
255
255
0
255
255
0
255
255
0
255
255
0
255
255
0
255
255
0
255
255
0
255
255
0
255
255
0
255
255
0
255
255
0
255
255
0
255
255
0
255
255
0
255
255
0
255
255
0
255
255
0
255
255
0
255
255
0
255
255
0
255
255
0
255
255
0
255
255
0
255
255
0
255
255
0
255
255
0
255
255
0
255
255
0
255
255
0
255
255
0
255
255
0
255
255
0
255
255
0
255
255
0
255
255
0
255
255
0
255
252
254
252
252
250
252
252
250
252
252
254
252
255
0
255
255
0
255
255
0
255
255
0
255
255
0
255
255
0
255
255
0
255
255
0
255
255
0
255
255
0
255
255
0
255
255
0
255
255
0
255
255
0
255
255
0
255
255
0
255
255
0
255
255
0
255
255
0
255
255
0
255
255
0
255
255
0
255
255
0
255
255
0
255
255
0
255
255
0
255
255
0
255
255
0
255
255
0
255
255
0
255
255
0
255
255
0
255
255
0
255
255
0
255
255
0
255
255
0
255
255
0
255
255
0
255
255
0
255
255
0
255
255
0
255
255
0
255
255
0
255
255
0
255
255
0
255
255
0
255
255
0
255
255
0
255
255
0
255
255
0
255
255
0
255
255
0
255
255
0
255
255
0
255
255
0
255
255
0
255
255
0
255
255
0
255
255
0
255
255
0
255
252
254
252
252
254
252
252
254
252
252
250
252
255
0
255
255
0
255
255
0
255
255
0
255
255
0
255
255
0
255
255
0
255
255
0
255
255
0
255
255
0
255
255
0
255
255
0
255
255
0
255
255
0
255
255
0
255
255
0
255
255
0
255
255
0
255
255
0
255
255
0
255
255
0
255
255
0
255
255
0
255
255
0
255
255
0
255
255
0
255
255
0
255
255
0
255
255
0
255
255
0
255
255
0
255
255
0
255
255
0
255
255
0
255
255
0
255
255
0
255
255
0
255
255
0
255
255
0
255
255
0
255
255
0
255
255
0
255
255
0
255
255
0
255
255
0
255
255
0
255
255
0
255
255
0
255
255
0
255
255
0
255
255
0
255
255
0
255
255
0
255
255
0
255
255
0
255
255
0
255
255
0
255
255
0
255
255
0
255
255
0
255
255
0
255
252
254
252
252
254
252
255
0
255
255
0
255
255
0
255
255
0
255
255
0
255
255
0
255
255
0
255
255
0
255
255
0
255
255
0
255
255
0
255
255
0
255
255
0
255
255
0
255
255
0
255
255
0
255
255
0
255
255
0
255
255
0
255
255
0
255
255
0
255
255
0
255
255
0
255
255
0
255
255
0
255
255
0
255
255
0
255
255
0
255
255
0
255
255
0
255
255
0
255
255
0
255
255
0
255
255
0
255
255
0
255
255
0
255
255
0
255
255
0
255
255
0
255
255
0
255
255
0
255
255
0
255
255
0
255
255
0
255
255
0
255
255
0
255
255
0
255
255
0
255
255
0
255
255
0
255
255
0
255
255
0
255
255
0
255
255
0
255
255
0
255
255
0
255
255
0
255
255
0
255
255
0
255
255
0
255
255
0
255
252
250
252
252
254
252
252
254
252
252
246
252
255
0
255
255
0
255
255
0
255
255
0
255
255
0
255
255
0
255
255
0
255
255
0
255
255
0
255
255
0
255
255
0
255
255
0
255
255
0
255
255
0
255
255
0
255
255
0
255
255
0
255
255
0
255
255
0
255
255
0
255
255
0
255
255
0
255
255
0
255
255
0
255
255
0
255
255
0
255
255
0
255
255
0
255
255
0
255
255
0
255
255
0
255
255
0
255
255
0
255
255
0
255
255
0
255
255
0
255
255
0
255
255
0
255
255
0
255
255
0
255
255
0
255
255
0
255
255
0
255
255
0
255
255
0
255
255
0
255
255
0
255
255
0
255
255
0
255
255
0
255
255
0
255
255
0
255
255
0
255
255
0
255
255
0
255
255
0
255
255
0
255
255
0
255
255
0
255
255
0
255
252
246
252
252
250
252
252
250
252
252
242
252
255
0
255
255
0
255
255
0
255
255
0
255
255
0
255
255
0
255
255
0
255
255
0
255
255
0
255
255
0
255
255
0
255
255
0
255
255
0
255
255
0
255
255
0
255
255
0
255
255
0
255
255
0
255
255
0
255
255
0
255
255
0
255
255
0
255
255
0
255
255
0
255
255
0
255
255
0
255
255
0
255
255
0
255
255
0
255
255
0
255
255
0
255
255
0
255
255
0
255
255
0
255
255
0
255
255
0
255
255
0
255
255
0
255
255
0
255
255
0
255
255
0
255
255
0
255
255
0
255
255
0
255
255
0
255
255
0
255
255
0
255
255
0
255
255
0
255
255
0
255
255
0
255
255
0
255
255
0
255
255
0
255
255
0
255
255
0
255
255
0
255
255
0
255
255
0
255
252
238
244
255
0
255
252
254
252
252
250
252
252
254
252
252
246
252
255
0
255
255
0
255
255
0
255
255
0
255
255
0
255
255
0
255
255
0
255
255
0
255
255
0
255
255
0
255
255
0
255
255
0
255
255
0
255
255
0
255
255
0
255
255
0
255
255
0
255
255
0
255
255
0
255
255
0
255
255
0
255
255
0
255
255
0
255
255
0
255
255
0
255
255
0
255
255
0
255
255
0
255
255
0
255
255
0
255
255
0
255
255
0
255
255
0
255
255
0
255
255
0
255
255
0
255
255
0
255
255
0
255
255
0
255
255
0
255
255
0
255
255
0
255
255
0
255
255
0
255
255
0
255
255
0
255
255
0
255
255
0
255
255
0
255
255
0
255
255
0
255
255
0
255
255
0
255
255
0
255
255
0
255
255
0
255
255
0
255
252
242
252
252
254
252
252
254
252
252
250
252
252
250
252
252
254
252
252
254
252
252
238
244
255
0
255
255
0
255
255
0
255
255
0
255
255
0
255
255
0
255
255
0
255
255
0
255
255
0
255
255
0
255
255
0
255
255
0
255
255
0
255
255
0
255
255
0
255
255
0
255
255
0
255
255
0
255
255
0
255
255
0
255
255
0
255
255
0
255
255
0
255
255
0
255
255
0
255
255
0
255
255
0
255
255
0
255
255
0
255
255
0
255
255
0
255
255
0
255
255
0
255
255
0
255
255
0
255
255
0
255
255
0
255
255
0
255
255
0
255
255
0
255
255
0
255
255
0
255
255
0
255
255
0
255
255
0
255
255
0
255
255
0
255
255
0
255
255
0
255
255
0
255
255
0
255
255
0
255
255
0
255
255
0
255
255
0
255
255
0
255
252
246
252
252
250
252
252
250
252
252
250
252
252
250
252
252
250
252
252
250
252
252
254
252
252
254
252
255
0
255
255
0
255
255
0
255
255
0
255
255
0
255
255
0
255
255
0
255
255
0
255
255
0
255
255
0
255
255
0
255
255
0
255
255
0
255
255
0
255
255
0
255
255
0
255
255
0
255
255
0
255
255
0
255
255
0
255
255
0
255
255
0
255
255
0
255
255
0
255
255
0
255
255
0
255
255
0
255
255
0
255
255
0
255
255
0
255
255
0
255
255
0
255
255
0
255
255
0
255
255
0
255
255
0
255
255
0
255
255
0
255
255
0
255
255
0
255
255
0
255
255
0
255
255
0
255
255
0
255
255
0
255
255
0
255
255
0
255
255
0
255
255
0
255
255
0
255
255
0
255
255
0
255
255
0
255
255
0
255
255
0
255
252
250
252
252
254
252
252
254
252
252
254
252
252
254
252
252
254
252
252
254
252
252
246
252
255
0
255
255
0
255
255
0
255
255
0
255
255
0
255
255
0
255
255
0
255
255
0
255
255
0
255
255
0
255
255
0
255
255
0
255
255
0
255
255
0
255
255
0
255
255
0
255
255
0
255
255
0
255
255
0
255
255
0
255
255
0
255
255
0
255
255
0
255
255
0
255
255
0
255
255
0
255
255
0
255
255
0
255
255
0
255
255
0
255
255
0
255
255
0
255
255
0
255
255
0
255
255
0
255
255
0
255
255
0
255
255
0
255
255
0
255
255
0
255
255
0
255
255
0
255
255
0
255
255
0
255
255
0
255
255
0
255
255
0
255
255
0
255
255
0
255
255
0
255
255
0
255
255
0
255
255
0
255
255
0
255
252
254
252
252
238
244
255
0
255
255
0
255
252
254
252
252
250
252
252
250
252
252
254
252
255
0
255
255
0
255
252
242
252
252
254
252
252
254
252
255
0
255
255
0
255
255
0
255
255
0
255
255
0
255
255
0
255
255
0
255
255
0
255
255
0
255
255
0
255
255
0
255
255
0
255
255
0
255
255
0
255
255
0
255
255
0
255
255
0
255
255
0
255
255
0
255
255
0
255
255
0
255
255
0
255
255
0
255
255
0
255
255
0
255
255
0
255
255
0
255
255
0
255
255
0
255
255
0
255
255
0
255
255
0
255
255
0
255
255
0
255
255
0
255
255
0
255
255
0
255
255
0
255
255
0
255
255
0
255
255
0
255
255
0
255
255
0
255
255
0
255
255
0
255
255
0
255
255
0
255
255
0
255
255
0
255
255
0
255
252
238
244
252
254
252
255
0
255
255
0
255
252
254
252
252
250
252
252
250
252
252
250
252
252
250
252
252
254
252
255
0
255
255
0
255
252
254
252
252
242
252
255
0
255
255
0
255
255
0
255
255
0
255
255
0
255
255
0
255
255
0
255
255
0
255
255
0
255
255
0
255
255
0
255
255
0
255
255
0
255
255
0
255
255
0
255
255
0
255
255
0
255
255
0
255
255
0
255
255
0
255
255
0
255
255
0
255
255
0
255
255
0
255
255
0
255
255
0
255
255
0
255
255
0
255
255
0
255
255
0
255
255
0
255
255
0
255
255
0
255
255
0
255
255
0
255
255
0
255
255
0
255
255
0
255
255
0
255
255
0
255
255
0
255
255
0
255
255
0
255
255
0
255
255
0
255
255
0
255
255
0
255
255
0
255
255
0
255
255
0
255
252
246
252
252
254
252
252
254
252
252
254
252
252
250
252
252
250
252
252
254
252
252
254
252
252
250
252
252
250
252
252
254
252
252
254
252
252
254
252
252
246
252
255
0
255
255
0
255
255
0
255
255
0
255
255
0
255
255
0
255
255
0
255
255
0
255
255
0
255
255
0
255
255
0
255
255
0
255
255
0
255
255
0
255
255
0
255
255
0
255
255
0
255
255
0
255
255
0
255
255
0
255
255
0
255
255
0
255
255
0
255
255
0
255
255
0
255
255
0
255
255
0
255
255
0
255
255
0
255
255
0
255
255
0
255
255
0
255
255
0
255
255
0
255
255
0
255
255
0
255
255
0
255
255
0
255
255
0
255
255
0
255
255
0
255
255
0
255
255
0
255
255
0
255
255
0
255
255
0
255
255
0
255
255
0
255
255
0
255
255
0
255
255
0
255
252
254
252
252
250
252
252
250
252
252
250
252
252
250
252
252
254
252
252
254
252
252
250
252
252
250
252
252
250
252
252
250
252
252
254
252
255
0
255
255
0
255
255
0
255
255
0
255
255
0
255
255
0
255
255
0
255
255
0
255
255
0
255
255
0
255
255
0
255
255
0
255
255
0
255
255
0
255
255
0
255
255
0
255
255
0
255
255
0
255
255
0
255
255
0
255
255
0
255
255
0
255
255
0
255
255
0
255
255
0
255
255
0
255
255
0
255
255
0
255
255
0
255
255
0
255
252
246
252
255
0
255
252
242
252
252
242
252
255
0
255
255
0
255
255
0
255
255
0
255
255
0
255
255
0
255
255
0
255
255
0
255
255
0
255
255
0
255
255
0
255
255
0
255
255
0
255
255
0
255
255
0
255
255
0
255
255
0
255
252
254
252
252
254
252
252
250
252
252
250
252
252
254
252
252
250
252
252
250
252
252
250
252
252
250
252
252
254
252
252
254
252
252
250
252
252
250
252
252
254
252
255
0
255
255
0
255
255
0
255
255
0
255
255
0
255
255
0
255
255
0
255
255
0
255
255
0
255
255
0
255
255
0
255
255
0
255
255
0
255
255
0
255
255
0
255
255
0
255
255
0
255
252
242
252
252
242
252
255
0
255
252
246
252
255
0
255
255
0
255
255
0
255
255
0
255
255
0
255
255
0
255
255
0
255
255
0
255
252
246
252
252
254
252
252
250
252
252
254
252
255
0
255
255
0
255
255
0
255
255
0
255
255
0
255
255
0
255
252
250
252
255
0
255
255
0
255
252
238
244
252
242
252
255
0
255
255
0
255
255
0
255
255
0
255
255
0
255
255
0
255
252
254
252
252
242
252
252
254
252
252
250
252
252
254
252
252
250
252
252
254
252
252
254
252
252
250
252
252
254
252
252
254
252
252
254
252
252
238
244
252
246
252
255
0
255
255
0
255
255
0
255
255
0
255
255
0
255
255
0
255
252
242
252
252
242
252
252
250
252
255
0
255
252
250
252
252
254
252
255
0
255
255
0
255
255
0
255
255
0
255
255
0
255
252
254
252
252
250
252
252
254
252
252
254
252
255
0
255
255
0
255
255
0
255
255
0
255
255
0
255
255
0
255
255
0
255
255
0
255
255
0
255
252
254
252
252
250
252
252
250
252
252
242
252
255
0
255
255
0
255
255
0
255
252
250
252
252
254
252
252
242
252
255
0
255
252
242
252
252
254
252
252
254
252
252
242
252
255
0
255
255
0
255
255
0
255
255
0
255
255
0
255
255
0
255
255
0
255
255
0
255
252
242
252
252
250
252
252
250
252
252
254
252
252
254
252
252
250
252
252
250
252
252
242
252
252
254
252
255
0
255
255
0
255
255
0
255
255
0
255
255
0
255
252
254
252
255
0
255
252
250
252
252
254
252
252
254
252
252
254
252
255
0
255
252
246
252
252
254
252
252
238
244
255
0
255
255
0
255
255
0
255
252
246
252
252
250
252
252
250
252
252
254
252
255
0
255
255
0
255
255
0
255
255
0
255
255
0
255
255
0
255
255
0
255
255
0
255
255
0
255
255
0
255
252
254
252
252
254
252
252
254
252
252
254
252
252
250
252
252
254
252
252
246
252
252
254
252
252
250
252
252
254
252
255
0
255
255
0
255
255
0
255
252
254
252
252
254
252
252
254
252
252
246
252
255
0
255
255
0
255
255
0
255
255
0
255
255
0
255
252
242
252
252
242
252
252
254
252
252
250
252
252
250
252
252
250
252
252
250
252
252
254
252
252
250
252
252
246
252
255
0
255
255
0
255
255
0
255
255
0
255
255
0
255
252
246
252
252
254
252
252
254
252
252
254
252
255
0
255
255
0
255
255
0
255
252
254
252
252
250
252
252
254
252
252
254
252
252
254
252
252
250
252
252
254
252
252
254
252
252
254
252
252
254
252
255
0
255
255
0
255
255
0
255
255
0
255
255
0
255
255
0
255
255
0
255
255
0
255
255
0
255
255
0
255
255
0
255
255
0
255
255
0
255
252
254
252
252
250
252
252
250
252
252
250
252
252
250
252
252
250
252
252
254
252
255
0
255
255
0
255
252
246
252
252
254
252
252
250
252
252
250
252
252
246
252
255
0
255
255
0
255
255
0
255
255
0
255
252
254
252
252
250
252
252
250
252
252
250
252
252
250
252
252
254
252
252
254
252
252
250
252
252
250
252
252
250
252
252
250
252
252
246
252
255
0
255
255
0
255
255
0
255
255
0
255
252
242
252
252
254
252
252
250
252
252
254
252
252
242
252
255
0
255
255
0
255
252
246
252
252
250
252
252
250
252
252
254
252
252
250
252
252
250
252
252
254
252
255
0
255
255
0
255
255
0
255
255
0
255
255
0
255
255
0
255
255
0
255
255
0
255
255
0
255
255
0
255
255
0
255
255
0
255
255
0
255
255
0
255
255
0
255
255
0
255
255
0
255
252
242
252
252
254
252
252
250
252
252
250
252
252
254
252
252
250
252
252
254
252
252
254
252
252
250
252
252
250
252
252
254
252
252
250
252
252
242
252
255
0
255
255
0
255
255
0
255
255
0
255
252
254
252
252
254
252
252
250
252
252
242
252
252
250
252
252
254
252
252
254
252
252
250
252
252
242
252
252
250
252
252
254
252
252
254
252
255
0
255
255
0
255
255
0
255
255
0
255
252
242
252
252
246
252
252
254
252
252
250
252
252
250
252
252
254
252
252
250
252
252
250
252
252
254
252
252
250
252
252
250
252
252
254
252
252
246
252
255
0
255
255
0
255
255
0
255
255
0
255
255
0
255
255
0
255
255
0
255
255
0
255
255
0
255
255
0
255
255
0
255
255
0
255
255
0
255
255
0
255
255
0
255
255
0
255
255
0
255
255
0
255
255
0
255
252
246
252
252
250
252
252
250
252
252
254
252
252
250
252
252
250
252
252
250
252
252
250
252
252
250
252
252
238
244
252
246
252
255
0
255
252
242
252
252
254
252
252
254
252
252
238
244
252
254
252
252
242
252
255
0
255
255
0
255
252
254
252
252
250
252
252
250
252
252
250
252
252
254
252
255
0
255
252
238
244
252
254
252
252
238
244
252
254
252
252
254
252
252
242
252
255
0
255
252
238
244
252
242
252
252
250
252
252
250
252
252
250
252
252
250
252
252
250
252
252
254
252
252
250
252
252
250
252
252
254
252
255
0
255
255
0
255
255
0
255
255
0
255
255
0
255
255
0
255
255
0
255
255
0
255
255
0
255
255
0
255
255
0
255
255
0
255
255
0
255
255
0
255
255
0
255
255
0
255
255
0
255
255
0
255
255
0
255
252
242
252
252
254
252
252
250
252
252
254
252
252
250
252
252
250
252
252
250
252
252
246
252
252
250
252
252
250
252
252
254
252
252
250
252
252
238
244
252
254
252
252
254
252
252
254
252
252
254
252
255
0
255
255
0
255
255
0
255
252
238
244
252
250
252
252
250
252
252
250
252
252
250
252
252
250
252
255
0
255
255
0
255
255
0
255
252
254
252
252
254
252
252
254
252
252
254
252
252
242
252
252
250
252
252
254
252
252
250
252
252
250
252
252
246
252
252
250
252
252
250
252
252
250
252
252
254
252
252
250
252
252
254
252
252
246
252
255
0
255
255
0
255
255
0
255
255
0
255
255
0
255
255
0
255
255
0
255
255
0
255
255
0
255
255
0
255
255
0
255
255
0
255
255
0
255
255
0
255
255
0
255
255
0
255
255
0
255
255
0
255
255
0
255
252
254
252
252
254
252
252
250
252
252
254
252
252
250
252
252
254
252
252
254
252
252
250
252
252
250
252
252
250
252
252
250
252
252
254
252
252
250
252
252
250
252
255
0
255
255
0
255
255
0
255
255
0
255
255
0
255
252
246
252
252
254
252
255
0
255
255
0
255
252
254
252
252
254
252
255
0
255
255
0
255
255
0
255
255
0
255
255
0
255
252
246
252
252
250
252
252
254
252
252
250
252
252
250
252
252
250
252
252
250
252
252
254
252
252
254
252
252
250
252
252
254
252
252
250
252
252
254
252
252
254
252
252
254
252
255
0
255
255
0
255
255
0
255
255
0
255
255
0
255
255
0
255
255
0
255
255
0
255
255
0
255
255
0
255
255
0
255
255
0
255
255
0
255
255
0
255
255
0
255
255
0
255
255
0
255
255
0
255
255
0
255
255
0
255
255
0
255
255
0
255
252
242
252
252
250
252
252
250
252
252
250
252
252
250
252
252
254
252
252
254
252
252
250
252
252
250
252
252
250
252
252
242
252
255
0
255
255
0
255
255
0
255
255
0
255
255
0
255
252
254
252
252
250
252
252
254
252
252
254
252
252
250
252
252
254
252
255
0
255
255
0
255
255
0
255
255
0
255
255
0
255
252
242
252
252
250
252
252
250
252
252
250
252
252
254
252
252
254
252
252
250
252
252
250
252
252
250
252
252
250
252
252
242
252
255
0
255
255
0
255
252
250
252
255
0
255
255
0
255
255
0
255
255
0
255
255
0
255
255
0
255
255
0
255
255
0
255
255
0
255
255
0
255
255
0
255
255
0
255
255
0
255
255
0
255
255
0
255
255
0
255
255
0
255
255
0
255
255
0
255
255
0
255
255
0
255
252
250
252
252
246
252
255
0
255
252
254
252
252
250
252
252
250
252
252
250
252
252
250
252
252
250
252
252
250
252
252
254
252
252
250
252
252
250
252
252
254
252
252
254
252
252
254
252
255
0
255
255
0
255
252
242
252
252
250
252
252
250
252
252
250
252
252
250
252
252
246
252
255
0
255
255
0
255
252
250
252
252
254
252
252
254
252
252
250
252
252
250
252
252
254
252
252
250
252
252
250
252
252
250
252
252
250
252
252
250
252
252
250
252
252
254
252
255
0
255
255
0
255
252
250
252
255
0
255
255
0
255
255
0
255
255
0
255
255
0
255
255
0
255
255
0
255
255
0
255
255
0
255
255
0
255
255
0
255
255
0
255
255
0
255
255
0
255
255
0
255
255
0
255
255
0
255
255
0
255
255
0
255
255
0
255
255
0
255
255
0
255
252
254
252
252
238
244
252
246
252
252
254
252
252
250
252
252
242
252
252
254
252
252
250
252
252
250
252
252
250
252
252
254
252
252
250
252
252
250
252
252
254
252
252
254
252
252
254
252
252
246
252
255
0
255
255
0
255
252
254
252
252
254
252
252
254
252
252
254
252
255
0
255
255
0
255
252
246
252
252
250
252
252
254
252
252
254
252
252
250
252
252
250
252
252
254
252
252
250
252
252
250
252
252
250
252
252
254
252
252
242
252
252
250
252
252
250
252
252
238
244
252
246
252
252
254
252
255
0
255
255
0
255
255
0
255
255
0
255
255
0
255
255
0
255
255
0
255
255
0
255
255
0
255
255
0
255
255
0
255
255
0
255
255
0
255
255
0
255
255
0
255
255
0
255
255
0
255
255
0
255
255
0
255
255
0
255
255
0
255
255
0
255
252
242
252
252
254
252
252
254
252
252
250
252
252
254
252
252
246
252
252
246
252
252
254
252
252
254
252
252
250
252
252
250
252
252
250
252
252
250
252
252
242
252
252
254
252
252
250
252
252
254
252
252
238
244
252
254
252
252
250
252
252
254
252
252
254
252
252
250
252
252
250
252
252
246
252
252
254
252
252
250
252
252
254
252
252
238
244
252
250
252
252
250
252
252
250
252
252
250
252
252
254
252
252
254
252
252
242
252
252
254
252
252
254
252
252
250
252
252
254
252
252
254
252
252
242
252
255
0
255
255
0
255
255
0
255
255
0
255
255
0
255
255
0
255
255
0
255
255
0
255
255
0
255
255
0
255
255
0
255
255
0
255
255
0
255
255
0
255
255
0
255
255
0
255
255
0
255
255
0
255
255
0
255
255
0
255
255
0
255
255
0
255
255
0
255
255
0
255
255
0
255
252
254
252
252
254
252
252
254
252
255
0
255
252
242
252
252
250
252
252
242
252
252
246
252
252
254
252
252
254
252
252
242
252
252
250
252
252
250
252
252
250
252
252
250
252
252
250
252
252
250
252
252
250
252
252
250
252
252
250
252
252
250
252
252
250
252
252
250
252
252
250
252
252
250
252
252
242
252
252
254
252
252
254
252
252
242
252
252
246
252
252
254
252
252
238
244
255
0
255
252
254
252
252
254
252
252
254
252
255
0
255
255
0
255
255
0
255
255
0
255
255
0
255
255
0
255
255
0
255
255
0
255
255
0
255
255
0
255
255
0
255
255
0
255
255
0
255
255
0
255
255
0
255
255
0
255
255
0
255
255
0
255
255
0
255
255
0
255
255
0
255
255
0
255
255
0
255
255
0
255
255
0
255
255
0
255
255
0
255
255
0
255
252
254
252
252
250
252
255
0
255
255
0
255
252
254
252
252
254
252
255
0
255
255
0
255
252
242
252
252
254
252
252
250
252
252
250
252
252
250
252
252
250
252
252
254
252
252
250
252
252
250
252
252
254
252
252
254
252
252
254
252
252
250
252
252
254
252
252
242
252
252
250
252
252
250
252
252
250
252
252
254
252
252
242
252
255
0
255
255
0
255
252
254
252
252
254
252
255
0
255
255
0
255
255
0
255
252
254
252
255
0
255
255
0
255
255
0
255
255
0
255
255
0
255
255
0
255
255
0
255
255
0
255
255
0
255
255
0
255
255
0
255
255
0
255
255
0
255
255
0
255
255
0
255
255
0
255
255
0
255
255
0
255
255
0
255
255
0
255
255
0
255
255
0
255
255
0
255
255
0
255
255
0
255
255
0
255
255
0
255
255
0
255
255
0
255
255
0
255
255
0
255
255
0
255
252
254
252
252
250
252
252
242
252
255
0
255
255
0
255
252
254
252
252
254
252
252
254
252
252
254
252
252
250
252
252
250
252
252
250
252
252
242
252
255
0
255
255
0
255
252
238
244
252
250
252
252
254
252
252
250
252
252
254
252
252
254
252
252
254
252
252
254
252
255
0
255
255
0
255
252
242
252
252
250
252
252
254
252
255
0
255
255
0
255
255
0
255
255
0
255
255
0
255
255
0
255
255
0
255
255
0
255
255
0
255
255
0
255
255
0
255
255
0
255
255
0
255
255
0
255
255
0
255
255
0
255
255
0
255
255
0
255
255
0
255
255
0
255
255
0
255
255
0
255
255
0
255
255
0
255
255
0
255
255
0
255
255
0
255
255
0
255
255
0
255
255
0
255
255
0
255
255
0
255
255
0
255
255
0
255
255
0
255
255
0
255
255
0
255
252
246
252
252
254
252
255
0
255
255
0
255
255
0
255
255
0
255
255
0
255
252
254
252
252
250
252
252
250
252
252
254
252
255
0
255
255
0
255
255
0
255
255
0
255
252
254
252
252
250
252
252
250
252
252
254
252
255
0
255
255
0
255
255
0
255
255
0
255
255
0
255
252
254
252
252
254
252
252
254
252
255
0
255
255
0
255
255
0
255
255
0
255
255
0
255
255
0
255
255
0
255
255
0
255
255
0
255
255
0
255
255
0
255
255
0
255
255
0
255
255
0
255
255
0
255
255
0
255
255
0
255
255
0
255
255
0
255
255
0
255
255
0
255
255
0
255
255
0
255
255
0
255
255
0
255
255
0
255
255
0
255
255
0
255
255
0
255
255
0
255
255
0
255
255
0
255
255
0
255
255
0
255
255
0
255
255
0
255
255
0
255
252
246
252
252
246
252
255
0
255
255
0
255
255
0
255
255
0
255
255
0
255
252
254
252
252
250
252
252
250
252
252
254
252
255
0
255
255
0
255
255
0
255
255
0
255
252
254
252
252
250
252
252
250
252
252
254
252
255
0
255
255
0
255
255
0
255
255
0
255
255
0
255
252
246
252
252
246
252
255
0
255
255
0
255
255
0
255
255
0
255
255
0
255
255
0
255
255
0
255
255
0
255
255
0
255
255
0
255
255
0
255
255
0
255
255
0
255
255
0
255
255
0
255
255
0
255
255
0
255
255
0
255
255
0
255
255
0
255
255
0
255
255
0
255
255
0
255
255
0
255
255
0
255
255
0
255
255
0
255
255
0
255
255
0
255
255
0
255
255
0
255
255
0
255
255
0
255
255
0
255
255
0
255
255
0
255
255
0
255
252
254
252
252
250
252
252
246
252
255
0
255
255
0
255
255
0
255
252
254
252
252
254
252
252
254
252
252
250
252
252
254
252
252
250
252
252
242
252
255
0
255
255
0
255
252
242
252
252
250
252
252
250
252
252
250
252
252
254
252
252
254
252
252
254
252
252
250
252
255
0
255
255
0
255
252
242
252
252
250
252
252
254
252
255
0
255
255
0
255
255
0
255
255
0
255
255
0
255
255
0
255
255
0
255
255
0
255
255
0
255
255
0
255
255
0
255
255
0
255
255
0
255
255
0
255
255
0
255
255
0
255
255
0
255
255
0
255
255
0
255
255
0
255
255
0
255
255
0
255
255
0
255
255
0
255
255
0
255
255
0
255
255
0
255
255
0
255
255
0
255
255
0
255
255
0
255
255
0
255
252
254
252
252
246
252
255
0
255
255
0
255
252
254
252
252
254
252
255
0
255
255
0
255
252
242
252
252
254
252
252
250
252
252
250
252
252
250
252
252
246
252
252
254
252
252
250
252
252
254
252
252
254
252
252
254
252
252
254
252
252
250
252
252
254
252
252
250
252
252
250
252
252
250
252
252
250
252
252
254
252
252
238
244
255
0
255
255
0
255
252
254
252
252
254
252
255
0
255
255
0
255
252
254
252
252
254
252
255
0
255
255
0
255
255
0
255
255
0
255
255
0
255
255
0
255
255
0
255
255
0
255
255
0
255
255
0
255
255
0
255
255
0
255
255
0
255
255
0
255
255
0
255
255
0
255
255
0
255
255
0
255
255
0
255
255
0
255
255
0
255
255
0
255
255
0
255
255
0
255
255
0
255
255
0
255
255
0
255
255
0
255
252
254
252
252
254
252
252
254
252
255
0
255
252
242
252
252
250
252
252
246
252
252
242
252
252
254
252
252
254
252
252
246
252
252
250
252
252
250
252
252
250
252
252
250
252
252
250
252
252
250
252
252
250
252
252
250
252
252
250
252
252
250
252
252
250
252
252
250
252
252
250
252
252
250
252
252
242
252
252
254
252
252
254
252
252
246
252
252
242
252
252
250
252
252
238
244
255
0
255
252
254
252
252
254
252
252
254
252
255
0
255
255
0
255
255
0
255
255
0
255
255
0
255
255
0
255
255
0
255
255
0
255
255
0
255
255
0
255
255
0
255
255
0
255
255
0
255
255
0
255
255
0
255
255
0
255
255
0
255
255
0
255
255
0
255
255
0
255
255
0
255
255
0
255
255
0
255
255
0
255
255
0
255
252
238
244
252
254
252
252
254
252
252
250
252
252
254
252
252
254
252
252
238
244
252
246
252
252
254
252
252
250
252
252
250
252
252
250
252
252
250
252
252
242
252
252
254
252
252
250
252
252
254
252
252
238
244
252
250
252
252
250
252
252
254
252
252
254
252
252
250
252
252
250
252
252
242
252
252
254
252
252
250
252
252
254
252
252
242
252
252
250
252
252
250
252
252
250
252
252
250
252
252
254
252
252
246
252
252
246
252
252
254
252
252
254
252
252
250
252
252
254
252
252
254
252
252
238
244
255
0
255
255
0
255
255
0
255
255
0
255
255
0
255
255
0
255
255
0
255
255
0
255
255
0
255
255
0
255
255
0
255
255
0
255
255
0
255
255
0
255
255
0
255
255
0
255
255
0
255
255
0
255
255
0
255
255
0
255
255
0
255
255
0
255
252
254
252
252
246
252
252
246
252
252
250
252
252
254
252
252
242
252
252
254
252
252
250
252
252
250
252
252
250
252
252
254
252
252
250
252
252
250
252
252
250
252
252
254
252
252
250
252
252
254
252
255
0
255
252
250
252
252
250
252
252
254
252
252
254
252
252
254
252
252
250
252
255
0
255
252
242
252
252
250
252
252
254
252
252
254
252
252
250
252
252
250
252
252
254
252
252
250
252
252
250
252
252
250
252
252
254
252
252
242
252
252
250
252
252
250
252
252
242
252
252
242
252
252
254
252
255
0
255
255
0
255
255
0
255
255
0
255
255
0
255
255
0
255
255
0
255
255
0
255
255
0
255
255
0
255
255
0
255
255
0
255
255
0
255
255
0
255
255
0
255
255
0
255
255
0
255
255
0
255
255
0
255
255
0
255
255
0
255
255
0
255
252
246
252
252
242
252
255
0
255
252
254
252
252
250
252
252
250
252
252
250
252
252
250
252
252
250
252
252
250
252
252
254
252
252
250
252
252
250
252
252
254
252
252
254
252
252
246
252
255
0
255
255
0
255
252
238
244
252
250
252
252
250
252
252
250
252
252
250
252
252
246
252
255
0
255
255
0
255
252
246
252
252
254
252
252
254
252
252
250
252
252
250
252
252
254
252
252
250
252
252
250
252
252
250
252
252
250
252
252
250
252
252
250
252
252
250
252
255
0
255
252
246
252
252
242
252
255
0
255
255
0
255
255
0
255
255
0
255
255
0
255
255
0
255
255
0
255
255
0
255
255
0
255
255
0
255
255
0
255
255
0
255
255
0
255
255
0
255
255
0
255
255
0
255
255
0
255
255
0
255
255
0
255
255
0
255
255
0
255
252
254
252
255
0
255
255
0
255
252
242
252
252
250
252
252
250
252
252
250
252
252
250
252
252
254
252
252
254
252
252
250
252
252
250
252
252
250
252
252
242
252
255
0
255
255
0
255
255
0
255
255
0
255
255
0
255
252
254
252
252
250
252
252
254
252
252
254
252
252
250
252
252
254
252
255
0
255
255
0
255
255
0
255
255
0
255
255
0
255
252
242
252
252
250
252
252
250
252
252
250
252
252
254
252
252
254
252
252
250
252
252
250
252
252
250
252
252
250
252
252
242
252
255
0
255
255
0
255
255
0
255
255
0
255
255
0
255
255
0
255
255
0
255
255
0
255
255
0
255
255
0
255
255
0
255
255
0
255
255
0
255
255
0
255
255
0
255
255
0
255
255
0
255
255
0
255
255
0
255
255
0
255
255
0
255
255
0
255
255
0
255
252
254
252
252
254
252
252
250
252
252
254
252
252
250
252
252
254
252
252
254
252
252
250
252
252
250
252
252
250
252
252
250
252
252
254
252
252
250
252
252
250
252
255
0
255
255
0
255
255
0
255
255
0
255
255
0
255
252
254
252
252
254
252
252
254
252
255
0
255
252
254
252
252
254
252
255
0
255
255
0
255
255
0
255
255
0
255
255
0
255
252
250
252
252
250
252
252
254
252
252
250
252
252
250
252
252
250
252
252
250
252
252
254
252
252
254
252
252
250
252
252
254
252
252
246
252
252
254
252
252
254
252
252
254
252
255
0
255
255
0
255
255
0
255
255
0
255
255
0
255
255
0
255
255
0
255
255
0
255
255
0
255
255
0
255
255
0
255
255
0
255
255
0
255
255
0
255
255
0
255
255
0
255
255
0
255
255
0
255
252
242
252
252
254
252
252
250
252
252
250
252
252
250
252
252
250
252
252
250
252
252
238
244
252
250
252
252
250
252
252
254
252
252
250
252
252
242
252
252
254
252
252
254
252
252
254
252
252
254
252
255
0
255
255
0
255
255
0
255
252
246
252
252
250
252
252
250
252
252
250
252
252
250
252
252
246
252
255
0
255
255
0
255
255
0
255
252
254
252
252
254
252
252
254
252
252
254
252
252
238
244
252
250
252
252
254
252
252
250
252
252
250
252
252
242
252
252
254
252
252
250
252
252
250
252
252
250
252
252
250
252
252
254
252
252
242
252
255
0
255
255
0
255
255
0
255
255
0
255
255
0
255
255
0
255
255
0
255
255
0
255
255
0
255
255
0
255
255
0
255
255
0
255
255
0
255
255
0
255
255
0
255
255
0
255
255
0
255
255
0
255
255
0
255
252
250
252
252
250
252
252
250
252
252
254
252
252
250
252
252
250
252
252
250
252
252
250
252
252
250
252
252
242
252
252
242
252
255
0
255
252
246
252
252
254
252
252
254
252
252
238
244
252
254
252
252
250
252
255
0
255
255
0
255
252
254
252
252
250
252
252
250
252
252
250
252
255
0
255
255
0
255
252
238
244
252
254
252
252
238
244
252
254
252
252
254
252
252
242
252
252
254
252
252
242
252
252
246
252
252
250
252
252
250
252
252
250
252
252
250
252
252
250
252
252
254
252
252
250
252
252
250
252
252
254
252
255
0
255
255
0
255
255
0
255
255
0
255
255
0
255
255
0
255
255
0
255
255
0
255
255
0
255
255
0
255
255
0
255
255
0
255
255
0
255
255
0
255
255
0
255
255
0
255
255
0
255
255
0
255
252
254
252
252
250
252
252
254
252
252
250
252
252
250
252
252
254
252
252
250
252
252
254
252
252
254
252
252
250
252
252
250
252
252
254
252
252
254
252
252
238
244
255
0
255
255
0
255
255
0
255
255
0
255
252
254
252
252
254
252
252
254
252
252
242
252
252
250
252
252
254
252
252
254
252
252
250
252
252
242
252
252
250
252
252
254
252
252
254
252
255
0
255
255
0
255
255
0
255
255
0
255
252
242
252
252
246
252
252
254
252
252
250
252
252
250
252
252
250
252
252
254
252
252
250
252
252
254
252
252
250
252
252
250
252
252
254
252
252
242
252
255
0
255
255
0
255
255
0
255
255
0
255
255
0
255
255
0
255
255
0
255
255
0
255
255
0
255
255
0
255
255
0
255
255
0
255
255
0
255
255
0
255
255
0
255
255
0
255
255
0
255
252
250
252
252
250
252
252
250
252
252
250
252
252
250
252
252
250
252
252
254
252
255
0
255
255
0
255
252
242
252
252
250
252
252
250
252
252
250
252
252
246
252
255
0
255
255
0
255
255
0
255
255
0
255
252
254
252
252
250
252
252
254
252
252
250
252
252
250
252
252
254
252
252
254
252
252
250
252
252
250
252
252
250
252
252
250
252
252
250
252
255
0
255
255
0
255
255
0
255
255
0
255
252
246
252
252
254
252
252
250
252
252
250
252
252
242
252
255
0
255
255
0
255
252
246
252
252
250
252
252
250
252
252
254
252
252
250
252
252
250
252
252
246
252
255
0
255
255
0
255
255
0
255
255
0
255
255
0
255
255
0
255
255
0
255
255
0
255
255
0
255
255
0
255
255
0
255
255
0
255
255
0
255
252
254
252
252
254
252
252
254
252
252
254
252
252
250
252
252
254
252
252
250
252
252
254
252
252
250
252
252
254
252
255
0
255
255
0
255
255
0
255
252
254
252
252
254
252
252
254
252
252
238
244
255
0
255
255
0
255
255
0
255
255
0
255
255
0
255
252
246
252
252
246
252
252
254
252
252
250
252
252
250
252
252
250
252
252
250
252
252
254
252
252
246
252
252
246
252
255
0
255
255
0
255
255
0
255
255
0
255
255
0
255
252
246
252
252
254
252
252
254
252
252
254
252
255
0
255
255
0
255
255
0
255
252
254
252
252
250
252
252
254
252
252
250
252
252
254
252
252
250
252
252
254
252
252
254
252
252
254
252
252
254
252
255
0
255
255
0
255
255
0
255
255
0
255
255
0
255
255
0
255
255
0
255
255
0
255
255
0
255
255
0
255
252
254
252
252
250
252
252
250
252
252
242
252
255
0
255
255
0
255
255
0
255
252
242
252
252
254
252
252
242
252
255
0
255
252
246
252
252
254
252
252
254
252
252
246
252
255
0
255
255
0
255
255
0
255
255
0
255
255
0
255
255
0
255
255
0
255
255
0
255
252
242
252
252
250
252
252
250
252
252
254
252
252
254
252
252
250
252
252
250
252
252
242
252
255
0
255
255
0
255
255
0
255
255
0
255
255
0
255
255
0
255
252
250
252
255
0
255
252
246
252
252
254
252
252
254
252
252
250
252
255
0
255
252
242
252
252
254
252
252
242
252
255
0
255
252
246
252
252
250
252
252
242
252
252
250
252
252
250
252
252
254
252
255
0
255
255
0
255
255
0
255
255
0
255
255
0
255
255
0
255
255
0
255
255
0
255
255
0
255
252
250
252
252
250
252
252
250
252
252
254
252
255
0
255
255
0
255
255
0
255
255
0
255
255
0
255
255
0
255
255
0
255
255
0
255
255
0
255
252
238
244
252
242
252
255
0
255
255
0
255
255
0
255
255
0
255
255
0
255
255
0
255
252
254
252
252
242
252
252
254
252
252
254
252
252
254
252
252
250
252
252
254
252
252
254
252
252
250
252
252
254
252
252
254
252
252
254
252
252
238
244
252
250
252
255
0
255
255
0
255
255
0
255
255
0
255
255
0
255
255
0
255
252
242
252
252
242
252
255
0
255
255
0
255
255
0
255
255
0
255
255
0
255
255
0
255
255
0
255
255
0
255
255
0
255
252
254
252
252
250
252
252
250
252
252
254
252
255
0
255
255
0
255
255
0
255
255
0
255
255
0
255
255
0
255
255
0
255
255
0
255
252
254
252
255
0
255
252
238
244
252
242
252
255
0
255
255
0
255
255
0
255
255
0
255
255
0
255
255
0
255
255
0
255
255
0
255
255
0
255
255
0
255
255
0
255
255
0
255
255
0
255
255
0
255
255
0
255
255
0
255
255
0
255
252
246
252
252
250
252
252
250
252
252
254
252
252
254
252
252
250
252
252
250
252
252
250
252
252
250
252
252
254
252
252
254
252
252
250
252
252
250
252
252
254
252
255
0
255
255
0
255
255
0
255
255
0
255
255
0
255
255
0
255
255
0
255
255
0
255
255
0
255
255
0
255
255
0
255
255
0
255
255
0
255
255
0
255
255
0
255
255
0
255
255
0
255
252
242
252
252
242
252
255
0
255
252
250
252
255
0
255
255
0
255
255
0
255
255
0
255
255
0
255
255
0
255
255
0
255
255
0
255
255
0
255
255
0
255
255
0
255
255
0
255
255
0
255
255
0
255
255
0
255
255
0
255
255
0
255
255
0
255
255
0
255
255
0
255
255
0
255
255
0
255
255
0
255
255
0
255
255
0
255
255
0
255
255
0
255
255
0
255
255
0
255
255
0
255
252
254
252
252
250
252
252
250
252
252
250
252
252
250
252
252
254
252
252
254
252
252
250
252
252
250
252
252
250
252
252
250
252
252
254
252
255
0
255
255
0
255
255
0
255
255
0
255
255
0
255
255
0
255
255
0
255
255
0
255
255
0
255
255
0
255
255
0
255
255
0
255
255
0
255
255
0
255
255
0
255
255
0
255
255
0
255
255
0
255
255
0
255
255
0
255
255
0
255
255
0
255
255
0
255
255
0
255
255
0
255
255
0
255
255
0
255
255
0
255
255
0
255
255
0
255
255
0
255
255
0
255
255
0
255
255
0
255
255
0
255
255
0
255
255
0
255
255
0
255
255
0
255
255
0
255
255
0
255
255
0
255
255
0
255
255
0
255
255
0
255
255
0
255
255
0
255
255
0
255
255
0
255
255
0
255
255
0
255
252
246
252
252
254
252
252
254
252
252
254
252
252
250
252
252
250
252
252
254
252
252
254
252
252
250
252
252
250
252
252
254
252
252
254
252
252
254
252
252
246
252
255
0
255
255
0
255
255
0
255
255
0
255
255
0
255
255
0
255
255
0
255
255
0
255
255
0
255
255
0
255
255
0
255
255
0
255
255
0
255
255
0
255
255
0
255
255
0
255
255
0
255
255
0
255
255
0
255
255
0
255
255
0
255
255
0
255
255
0
255
255
0
255
255
0
255
255
0
255
255
0
255
255
0
255
255
0
255
255
0
255
255
0
255
255
0
255
255
0
255
255
0
255
255
0
255
255
0
255
255
0
255
255
0
255
255
0
255
255
0
255
255
0
255
255
0
255
255
0
255
255
0
255
255
0
255
255
0
255
255
0
255
255
0
255
255
0
255
255
0
255
252
246
252
252
254
252
255
0
255
255
0
255
252
254
252
252
250
252
252
250
252
252
250
252
252
250
252
252
254
252
255
0
255
255
0
255
252
254
252
252
238
244
255
0
255
255
0
255
255
0
255
255
0
255
255
0
255
255
0
255
255
0
255
255
0
255
255
0
255
255
0
255
255
0
255
255
0
255
255
0
255
255
0
255
255
0
255
255
0
255
255
0
255
255
0
255
255
0
255
255
0
255
255
0
255
255
0
255
255
0
255
255
0
255
255
0
255
255
0
255
255
0
255
255
0
255
255
0
255
255
0
255
255
0
255
255
0
255
255
0
255
255
0
255
255
0
255
255
0
255
255
0
255
255
0
255
255
0
255
255
0
255
255
0
255
255
0
255
255
0
255
255
0
255
255
0
255
255
0
255
255
0
255
255
0
255
255
0
255
255
0
255
255
0
255
252
254
252
252
242
252
255
0
255
255
0
255
252
254
252
252
250
252
252
250
252
252
254
252
255
0
255
255
0
255
252
238
244
252
254
252
255
0
255
255
0
255
255
0
255
255
0
255
255
0
255
255
0
255
255
0
255
255
0
255
255
0
255
255
0
255
255
0
255
255
0
255
255
0
255
255
0
255
255
0
255
255
0
255
255
0
255
255
0
255
255
0
255
255
0
255
255
0
255
255
0
255
255
0
255
255
0
255
255
0
255
255
0
255
255
0
255
255
0
255
255
0
255
255
0
255
255
0
255
255
0
255
255
0
255
255
0
255
255
0
255
255
0
255
255
0
255
255
0
255
255
0
255
255
0
255
255
0
255
255
0
255
255
0
255
255
0
255
255
0
255
255
0
255
255
0
255
255
0
255
255
0
255
255
0
255
255
0
255
255
0
255
255
0
255
255
0
255
252
250
252
252
254
252
252
254
252
252
254
252
252
254
252
252
254
252
252
254
252
252
246
252
255
0
255
255
0
255
255
0
255
255
0
255
255
0
255
255
0
255
255
0
255
255
0
255
255
0
255
255
0
255
255
0
255
255
0
255
255
0
255
255
0
255
255
0
255
255
0
255
255
0
255
255
0
255
255
0
255
255
0
255
255
0
255
255
0
255
255
0
255
255
0
255
255
0
255
255
0
255
255
0
255
255
0
255
255
0
255
255
0
255
255
0
255
255
0
255
255
0
255
255
0
255
255
0
255
255
0
255
255
0
255
255
0
255
255
0
255
255
0
255
255
0
255
255
0
255
255
0
255
255
0
255
255
0
255
255
0
255
255
0
255
255
0
255
255
0
255
255
0
255
255
0
255
255
0
255
255
0
255
255
0
255
255
0
255
255
0
255
252
238
244
252
250
252
252
250
252
252
250
252
252
250
252
252
250
252
252
250
252
252
250
252
255
0
255
255
0
255
255
0
255
255
0
255
255
0
255
255
0
255
255
0
255
255
0
255
255
0
255
255
0
255
255
0
255
255
0
255
255
0
255
255
0
255
255
0
255
255
0
255
255
0
255
255
0
255
255
0
255
255
0
255
255
0
255
255
0
255
255
0
255
255
0
255
255
0
255
255
0
255
255
0
255
255
0
255
255
0
255
255
0
255
255
0
255
255
0
255
255
0
255
255
0
255
255
0
255
255
0
255
255
0
255
255
0
255
255
0
255
255
0
255
255
0
255
255
0
255
255
0
255
255
0
255
255
0
255
255
0
255
255
0
255
255
0
255
255
0
255
255
0
255
255
0
255
255
0
255
255
0
255
255
0
255
255
0
255
255
0
255
252
238
244
252
254
252
252
254
252
252
250
252
252
250
252
252
254
252
252
254
252
252
246
252
252
254
252
255
0
255
255
0
255
255
0
255
255
0
255
255
0
255
255
0
255
255
0
255
255
0
255
255
0
255
255
0
255
255
0
255
255
0
255
255
0
255
255
0
255
255
0
255
255
0
255
255
0
255
255
0
255
255
0
255
255
0
255
255
0
255
255
0
255
255
0
255
255
0
255
255
0
255
255
0
255
255
0
255
255
0
255
255
0
255
255
0
255
255
0
255
255
0
255
255
0
255
255
0
255
255
0
255
255
0
255
255
0
255
255
0
255
255
0
255
255
0
255
255
0
255
255
0
255
255
0
255
255
0
255
255
0
255
255
0
255
255
0
255
255
0
255
255
0
255
255
0
255
255
0
255
255
0
255
255
0
255
255
0
255
255
0
255
255
0
255
252
242
252
255
0
255
252
254
252
252
254
252
255
0
255
252
254
252
255
0
255
255
0
255
255
0
255
255
0
255
255
0
255
255
0
255
255
0
255
255
0
255
255
0
255
255
0
255
255
0
255
255
0
255
255
0
255
255
0
255
255
0
255
255
0
255
255
0
255
255
0
255
255
0
255
255
0
255
255
0
255
255
0
255
255
0
255
255
0
255
255
0
255
255
0
255
255
0
255
255
0
255
255
0
255
255
0
255
255
0
255
255
0
255
255
0
255
255
0
255
255
0
255
255
0
255
255
0
255
255
0
255
255
0
255
255
0
255
255
0
255
255
0
255
255
0
255
255
0
255
255
0
255
255
0
255
255
0
255
255
0
255
255
0
255
255
0
255
255
0
255
255
0
255
255
0
255
255
0
255
255
0
255
255
0
255
255
0
255
255
0
255
255
0
255
252
246
252
252
250
252
252
250
252
252
242
252
255
0
255
255
0
255
255
0
255
255
0
255
255
0
255
255
0
255
255
0
255
255
0
255
255
0
255
255
0
255
255
0
255
255
0
255
255
0
255
255
0
255
255
0
255
255
0
255
255
0
255
255
0
255
255
0
255
255
0
255
255
0
255
255
0
255
255
0
255
255
0
255
255
0
255
255
0
255
255
0
255
255
0
255
255
0
255
255
0
255
255
0
255
255
0
255
255
0
255
255
0
255
255
0
255
255
0
255
255
0
255
255
0
255
255
0
255
255
0
255
255
0
255
255
0
255
255
0
255
255
0
255
255
0
255
255
0
255
255
0
255
255
0
255
255
0
255
255
0
255
255
0
255
255
0
255
255
0
255
255
0
255
255
0
255
255
0
255
255
0
255
255
0
255
255
0
255
255
0
255
252
254
252
252
254
252
252
254
252
252
246
252
255
0
255
255
0
255
255
0
255
255
0
255
255
0
255
255
0
255
255
0
255
255
0
255
255
0
255
255
0
255
255
0
255
255
0
255
255
0
255
255
0
255
255
0
255
255
0
255
255
0
255
255
0
255
255
0
255
255
0
255
255
0
255
255
0
255
255
0
255
255
0
255
255
0
255
255
0
255
255
0
255
255
0
255
255
0
255
255
0
255
255
0
255
255
0
255
255
0
255
255
0
255
255
0
255
255
0
255
255
0
255
255
0
255
255
0
255
255
0
255
255
0
255
255
0
255
255
0
255
255
0
255
255
0
255
255
0
255
255
0
255
255
0
255
255
0
255
255
0
255
255
0
255
255
0
255
255
0
255
255
0
255
255
0
255
255
0
255
255
0
255
255
0
255
255
0
255
255
0
255
255
0
255
252
254
252
252
254
252
255
0
255
255
0
255
255
0
255
255
0
255
255
0
255
255
0
255
255
0
255
255
0
255
255
0
255
255
0
255
255
0
255
255
0
255
255
0
255
255
0
255
255
0
255
255
0
255
255
0
255
255
0
255
255
0
255
255
0
255
255
0
255
255
0
255
255
0
255
255
0
255
255
0
255
255
0
255
255
0
255
255
0
255
255
0
255
255
0
255
255
0
255
255
0
255
255
0
255
255
0
255
255
0
255
255
0
255
255
0
255
255
0
255
255
0
255
255
0
255
255
0
255
255
0
255
255
0
255
255
0
255
255
0
255
255
0
255
255
0
255
255
0
255
255
0
255
255
0
255
255
0
255
255
0
255
255
0
255
255
0
255
255
0
255
255
0
255
255
0
255
255
0
255
255
0
255
255
0
255
255
0
255
252
250
252
252
254
252
252
254
252
252
246
252
255
0
255
255
0
255
255
0
255
255
0
255
255
0
255
255
0
255
255
0
255
255
0
255
255
0
255
255
0
255
255
0
255
255
0
255
255
0
255
255
0
255
255
0
255
255
0
255
255
0
255
255
0
255
255
0
255
255
0
255
255
0
255
255
0
255
255
0
255
255
0
255
255
0
255
255
0
255
255
0
255
255
0
255
255
0
255
255
0
255
255
0
255
255
0
255
255
0
255
255
0
255
255
0
255
255
0
255
255
0
255
255
0
255
255
0
255
255
0
255
255
0
255
255
0
255
255
0
255
255
0
255
255
0
255
255
0
255
255
0
255
255
0
255
255
0
255
255
0
255
255
0
255
255
0
255
255
0
255
255
0
255
255
0
255
255
0
255
255
0
255
255
0
255
255
0
255
255
0
255
252
254
252
252
250
252
252
250
252
252
254
252
255
0
255
255
0
255
255
0
255
255
0
255
255
0
255
255
0
255
255
0
255
255
0
255
255
0
255
255
0
255
255
0
255
255
0
255
255
0
255
255
0
255
255
0
255
255
0
255
255
0
255
255
0
255
255
0
255
255
0
255
255
0
255
255
0
255
255
0
255
255
0
255
255
0
255
255
0
255
255
0
255
255
0
255
255
0
255
255
0
255
255
0
255
255
0
255
255
0
255
255
0
255
255
0
255
255
0
255
255
0
255
255
0
255
255
0
255
255
0
255
255
0
255
255
0
255
255
0
255
255
0
255
255
0
255
255
0
255
255
0
255
255
0
255
255
0
255
255
0
255
255
0
255
255
0
255
255
0
255
255
0
255
255
0
255
255
0
255
255
0
255
255
0
255
255
0
255
255
0
255
252
250
252
252
254
252
252
254
252
252
246
252
255
0
255
255
0
255
255
0
255
255
0
255
255
0
255
255
0
255
255
0
255
255
0
255
255
0
255
255
0
255
255
0
255
255
0
255
255
0
255
255
0
255
255
0
255
255
0
255
255
0
255
255
0
255
255
0
255
255
0
255
255
0
255
255
0
255
255
0
255
255
0
255
255
0
255
255
0
255
255
0
255
255
0
255
255
0
255
255
0
255
255
0
255
255
0
255
255
0
255
255
0
255
255
0
255
255
0
255
255
0
255
255
0
255
255
0
255
255
0
255
255
0
255
255
0
255
255
0
255
255
0
255
255
0
255
255
0
255
255
0
255
255
0
255
255
0
255
255
0
255
255
0
255
255
0
255
255
0
255
255
0
255
255
0
255
255
0
255
255
0
255
255
0
255
255
0
255
255
0
255
255
0
255
252
242
252
252
250
252
255
0
255
255
0
255
255
0
255
255
0
255
255
0
255
255
0
255
255
0
255
255
0
255
255
0
255
255
0
255
255
0
255
255
0
255
255
0
255
255
0
255
255
0
255
255
0
255
255
0
255
255
0
255
255
0
255
255
0
255
255
0
255
255
0
255
255
0
255
255
0
255
255
0
255
255
0
255
255
0
255
255
0
255
255
0
255
255
0
255
255
0
255
